# xmcd CD database file
#
# Track frame offsets:
#	150
#	17778
#	27200
#	35144
#	50826
#	57400
#	93365
#	104955
#	121201
#	133145
#	143534
#	160515
#	169266
#	198934
#	213166
#	245642
#	270662
#	312905
#
# Disc length: 4525 seconds
#
# Revision: 0
# Processed by: cddbd v1.5.2PL0 Copyright (c) Steve Scherf et al.
# Submitted via: CDex 1.51
#
DISCID=0811ab12
DTITLE=Jorge Campos - Machi
DYEAR=2000
DGENRE=Jazz
TTITLE0=Horrisono
TTITLE1=Mapocho
TTITLE2=Bendicion
TTITLE3=Octatron
TTITLE4=Gil-Hop
TTITLE5=Alturas
TTITLE6=Toques de lo Esencial
TTITLE7=Amarillelou
TTITLE8=Smog
TTITLE9=A Marvada Carnee
TTITLE10=Amor en Stell@r (Hot Copilot)
TTITLE11=Kachatelovni
TTITLE12=Zatrapa
TTITLE13=Machi
TTITLE14=Mapocho
TTITLE15=Octatron
TTITLE16=Zatrapa
TTITLE17=Horrisono
EXTD=YEAR: 2000
EXTT0=
EXTT1=
EXTT2=
EXTT3=
EXTT4=
EXTT5=
EXTT6=
EXTT7=
EXTT8=
EXTT9=
EXTT10=
EXTT11=
EXTT12=
EXTT13=
EXTT14=
EXTT15=
EXTT16=
EXTT17=
PLAYORDER=
